PathFileType	4	(X/Y/Z)	s08c0401.trc
DataRate	CameraRate	NumFrames	NumMarkers	Units	OrigDataRate	OrigDataStartFrame	OrigNumFrames
200	200	4	50	mm	200	0	2000
Frame#	Time	racr			lacr			c7			jug			rlel			rdr			llel			ldr			s2			lic			ric			lasi			rasi			rpsi			lpsi			rgt			lgt			rth1			rth2			rth3			rth4			rlfc			rmfc			rsh1			rsh2			rsh3			rsh4			rlmal			rmmal			rcal			rtoe			rmt5			lth1			lth2			lth4			lth3			llfc			lmfc			llmal			lmmal			lcal			lmt5			lsh1			lsh2			lsh3			lsh4			ltoe			SBIKE			LBIKE			RBIKE			
		X1	Y1	Z1	X2	Y2	Z2	X3	Y3	Z3	X4	Y4	Z4	X5	Y5	Z5	X6	Y6	Z6	X7	Y7	Z7	X8	Y8	Z8	X9	Y9	Z9	X10	Y10	Z10	X11	Y11	Z11	X12	Y12	Z12	X13	Y13	Z13	X14	Y14	Z14	X15	Y15	Z15	X16	Y16	Z16	X17	Y17	Z17	X18	Y18	Z18	X19	Y19	Z19	X20	Y20	Z20	X21	Y21	Z21	X22	Y22	Z22	X23	Y23	Z23	X24	Y24	Z24	X25	Y25	Z25	X26	Y26	Z26	X27	Y27	Z27	X28	Y28	Z28	X29	Y29	Z29	X30	Y30	Z30	X31	Y31	Z31	X32	Y32	Z32	X33	Y33	Z33	X34	Y34	Z34	X35	Y35	Z35	X36	Y36	Z36	X37	Y37	Z37	X38	Y38	Z38	X39	Y39	Z39	X40	Y40	Z40	X41	Y41	Z41	X42	Y42	Z42	X43	Y43	Z43	X44	Y44	Z44	X45	Y45	Z45	X46	Y46	Z46	X47	Y47	Z47	X48	Y48	Z48	X49	Y49	Z49	X50	Y50	Z50	
0	0.0000	499.362753	1405.948279	-64.875744	520.008624	1415.718854	-429.758753	482.915638	1475.411820	-238.724713	475.220691	1324.354748	-242.482640	581.987429	1161.084829	-7.203339	786.387781	933.141245	-70.546422	611.977066	1170.464251	-472.101146	750.171851	1023.434522	-478.707631	-50.339856	1207.314076	-252.443010	130.072295	1187.089652	-400.456202	106.483878	1219.036327	-85.008923	143.505712	1125.057541	-360.311187	126.426364	1165.092325	-117.411142	-22.264698	1252.460490	-202.762600	-13.286970	1246.758488	-296.472253	24.594089	1127.334858	-39.356477	43.389747	1068.236702	-422.820212	175.380955	1050.302542	-36.701752	263.560179	1038.435545	-37.980517	332.023624	984.689931	-41.154123	277.190636	1070.156259	-52.233690	433.750076	921.707742	-62.878062	419.546029	908.892004	-170.126603	363.574262	811.953822	-33.826699	351.510813	723.777440	-52.393310	297.710255	656.703343	-60.533705	400.455786	730.026872	-102.574392	243.858615	551.971462	-70.869088	286.148288	585.651129	-175.508082	162.530826	525.479604	-114.422601	459.497790	508.292642	-111.227769	371.155715	479.472682	-44.384246	87.522426	939.723067	-438.292634	134.813039	866.244047	-432.828699	163.056927	878.904289	-451.318617	137.897055	777.455480	-430.240009	171.798202	654.167727	-403.442669	166.470567	632.049119	-304.307373	83.315600	246.414349	-402.545827	109.512385	266.094042	-317.389103	16.918389	221.065105	-362.162792	222.834154	159.929760	-421.085927	142.117280	529.754176	-431.028339	145.571495	445.828239	-411.937112	109.463344	365.689098	-415.070476	165.525418	446.237943	-378.240612	303.976237	188.911774	-351.992818	-139.998202	942.187742	-229.219819	17.703306	79.636826	-427.944831	17.774804	80.052420	-29.214230	
1	0.0050	499.358830	1405.953053	-64.816637	520.012873	1415.703741	-429.721776	482.958096	1475.359232	-238.699250	475.503512	1324.400115	-242.544611	581.915819	1161.054653	-7.159332	786.365255	933.162181	-70.517417	611.973763	1170.455156	-472.083825	750.533677	1023.548898	-478.684857	-50.237026	1207.324853	-252.555515	130.109959	1187.050994	-400.498951	106.469375	1219.073155	-85.012488	143.555763	1125.034032	-360.329506	126.445724	1165.114735	-117.404357	-22.213384	1252.435276	-202.826915	-13.224497	1246.732279	-296.538240	24.628277	1127.345837	-39.391940	43.435673	1068.193758	-422.841079	175.403800	1050.332579	-36.735740	263.570635	1038.479051	-37.987450	332.054581	984.724674	-41.164380	277.220078	1070.204585	-52.258220	433.736504	921.732022	-62.867610	419.545658	908.899948	-170.148856	363.578824	811.992413	-33.842529	351.516690	723.810038	-52.392861	297.680633	656.732293	-60.531819	400.545155	730.068843	-102.582180	243.836799	552.019642	-70.849501	286.146696	585.684036	-175.507205	162.497878	525.521651	-114.440543	459.462854	508.317381	-111.214297	371.134618	479.483525	-44.394902	87.572060	939.665942	-438.257474	134.864301	866.187521	-432.812017	163.059615	878.799637	-451.287411	137.930800	777.402481	-430.213017	171.840932	654.138784	-403.438066	166.498350	632.027751	-304.284834	83.344685	246.390079	-402.565471	109.577981	266.051141	-317.385594	16.936185	221.013709	-362.142994	222.856834	159.933551	-421.091020	142.176184	529.729757	-431.005654	145.605995	445.789806	-411.917982	109.499730	365.661450	-415.070394	165.573617	446.216129	-378.231406	304.020252	188.910203	-351.997109	-139.999368	942.184474	-229.217166	17.714885	79.634853	-427.953965	17.767684	80.054048	-29.211724	
2	0.0100	499.315385	1405.937900	-64.783404	520.038847	1415.691277	-429.711411	483.019732	1475.335440	-238.675056	475.532147	1324.389165	-242.529602	581.850209	1161.050453	-7.117686	786.371217	933.167543	-70.495093	611.993184	1170.455036	-472.106788	750.713732	1023.443932	-478.521327	-50.203979	1207.289407	-252.582984	130.154777	1187.026758	-400.482079	106.470791	1219.091621	-85.020901	143.622395	1125.022595	-360.349092	126.457092	1165.130706	-117.429481	-22.058409	1252.344343	-202.675509	-13.163964	1246.705973	-296.590357	24.638816	1127.368314	-39.425112	43.496088	1068.139607	-422.836519	175.410040	1050.350051	-36.768922	263.600952	1038.505797	-38.020982	332.068960	984.760865	-41.164617	277.239035	1070.220986	-52.277249	433.750231	921.733971	-62.868016	419.564369	908.850782	-170.076656	363.569296	811.995826	-33.854510	351.536112	723.813704	-52.392458	297.682887	656.756961	-60.536698	400.494779	730.104185	-102.593452	243.793421	552.038818	-70.842639	286.098220	585.701657	-175.485744	162.485814	525.530360	-114.436597	459.425787	508.327917	-111.216458	371.111356	479.494524	-44.390806	87.604569	939.621974	-438.242274	134.911623	866.131506	-432.775784	163.112359	878.761504	-451.274526	137.956154	777.342022	-430.181437	171.880232	654.097182	-403.406793	166.523751	631.992255	-304.241765	83.348386	246.358187	-402.542439	109.584196	266.017826	-317.372979	16.943522	220.967573	-362.132190	222.866637	159.927267	-421.095096	142.215072	529.687276	-430.994143	145.631696	445.751507	-411.886093	109.523295	365.631606	-415.047006	165.588543	446.158173	-378.173749	304.043605	188.921799	-352.005869	-139.992211	942.177676	-229.219334	17.700929	79.657035	-427.939164	17.768726	80.045139	-29.230329	
3	0.0150	498.556960	1405.012376	-66.461142	517.820546	1415.621352	-430.230494	483.223538	1475.385251	-238.732296	466.523359	1321.113321	-235.150220	581.809660	1161.017614	-7.106378	786.358169	933.094495	-70.546196	611.101082	1171.233971	-475.024391	750.805206	1023.464545	-478.511427	-50.157494	1207.284267	-252.642190	131.262212	1186.357630	-399.237180	106.364908	1219.010006	-84.992974	146.362306	1128.578133	-368.976145	126.476065	1165.157787	-117.442793	-22.191929	1252.110845	-202.650158	-13.098852	1246.693370	-296.651079	24.647148	1127.397243	-39.448487	43.722070	1068.032084	-422.614517	175.407257	1050.395032	-36.786495	263.470710	1039.096930	-38.616595	332.074186	984.732110	-41.153775	277.260024	1070.239408	-52.301360	433.734179	921.740411	-62.870844	419.260674	909.370582	-171.614410	363.666152	812.027315	-34.051849	351.519182	723.820651	-52.393513	297.680292	656.745380	-60.541013	387.806727	726.811660	-102.742451	243.803222	552.046953	-70.835271	283.126083	585.668835	-178.778678	163.135764	524.047159	-114.626263	459.425129	508.335340	-111.212958	371.017050	479.540748	-44.333841	87.102420	940.272510	-439.710639	135.037434	866.034313	-432.604517	164.954696	878.096409	-442.554806	138.391966	777.219514	-429.250328	172.013787	654.055651	-403.218295	166.273692	633.366732	-308.268858	83.973881	245.364515	-401.053403	107.753517	267.369196	-319.362678	16.940300	220.932103	-362.105497	221.997117	161.884124	-423.812580	142.429856	529.514905	-430.734348	145.684093	445.796956	-411.919963	108.987625	366.509749	-416.500190	165.597603	446.121769	-378.153163	303.203416	190.125660	-353.609248	-139.988735	942.183151	-229.221006	17.708230	79.652190	-427.943508	17.120319	78.674476	-31.381603	
